<svg width="213" height="41" viewBox="0 0 213 41" fill="none" xmlns="http://www.w3.org/2000/svg">
<g filter="url(#filter0_d_1210_2975)">
<g clip-path="url(#clip0_1210_2975)">
<path d="M206.596 0H178.922C177.597 0 176.525 1.04657 176.525 2.3405V30.1284C176.525 31.4223 177.597 32.4752 178.922 32.4752H206.596C207.922 32.4752 209 31.4223 209 30.1347V2.3405C209 1.04657 207.922 0 206.596 0ZM186.16 27.6737H181.339V12.1719H186.16V27.6737ZM183.749 10.0597C182.202 10.0597 180.952 8.81018 180.952 7.26887C180.952 5.72757 182.202 4.47803 183.749 4.47803C185.291 4.47803 186.54 5.72757 186.54 7.26887C186.54 8.80384 185.291 10.0597 183.749 10.0597ZM204.199 27.6737H199.384V20.1385C199.384 18.3434 199.353 16.0283 196.879 16.0283C194.374 16.0283 193.993 17.9882 193.993 20.0116V27.6737H189.185V12.1719H193.803V14.2904H193.866C194.507 13.0726 196.08 11.785 198.42 11.785C203.298 11.785 204.199 14.9944 204.199 19.168V27.6737Z" fill="black"/>
</g>
<g clip-path="url(#clip1_1210_2975)">
<path d="M135.254 2.92404C139.593 2.92404 140.106 2.94307 141.813 3.01918C143.398 3.08895 144.255 3.35535 144.826 3.57735C145.58 3.86912 146.126 4.22432 146.69 4.78883C147.261 5.35968 147.61 5.89882 147.902 6.65362C148.124 7.22447 148.39 8.0871 148.46 9.66646C148.536 11.379 148.555 11.8928 148.555 16.2249C148.555 20.5634 148.536 21.0772 148.46 22.7834C148.39 24.3691 148.124 25.2254 147.902 25.7963C147.61 26.5511 147.255 27.0965 146.69 27.661C146.119 28.2319 145.58 28.5808 144.826 28.8725C144.255 29.0945 143.392 29.3609 141.813 29.4307C140.1 29.5068 139.586 29.5258 135.254 29.5258C130.916 29.5258 130.402 29.5068 128.696 29.4307C127.11 29.3609 126.254 29.0945 125.683 28.8725C124.928 28.5808 124.383 28.2256 123.818 27.661C123.247 27.0902 122.898 26.5511 122.607 25.7963C122.385 25.2254 122.118 24.3628 122.048 22.7834C121.972 21.0709 121.953 20.5571 121.953 16.2249C121.953 11.8864 121.972 11.3727 122.048 9.66646C122.118 8.08075 122.385 7.22447 122.607 6.65362C122.898 5.89882 123.254 5.35334 123.818 4.78883C124.389 4.21798 124.928 3.86912 125.683 3.57735C126.254 3.35535 127.116 3.08895 128.696 3.01918C130.402 2.94307 130.916 2.92404 135.254 2.92404ZM135.254 0C130.846 0 130.294 0.0190285 128.563 0.0951423C126.837 0.171256 125.651 0.45034 124.624 0.849938C123.552 1.26856 122.645 1.82039 121.744 2.72741C120.837 3.62809 120.285 4.53512 119.867 5.60071C119.467 6.63459 119.188 7.81436 119.112 9.5396C119.036 11.2775 119.017 11.8294 119.017 16.2376C119.017 20.6459 119.036 21.1977 119.112 22.9293C119.188 24.6545 119.467 25.8407 119.867 26.8682C120.285 27.9401 120.837 28.8472 121.744 29.7478C122.645 30.6485 123.552 31.2067 124.617 31.619C125.651 32.0186 126.831 32.2976 128.556 32.3738C130.288 32.4499 130.84 32.4689 135.248 32.4689C139.656 32.4689 140.208 32.4499 141.94 32.3738C143.665 32.2976 144.851 32.0186 145.878 31.619C146.944 31.2067 147.851 30.6485 148.752 29.7478C149.652 28.8472 150.211 27.9401 150.623 26.8745C151.022 25.8407 151.302 24.6609 151.378 22.9356C151.454 21.2041 151.473 20.6522 151.473 16.244C151.473 11.8357 151.454 11.2839 151.378 9.55229C151.302 7.82704 151.022 6.64093 150.623 5.6134C150.223 4.53512 149.671 3.62809 148.764 2.72741C147.864 1.82673 146.957 1.26856 145.891 0.856281C144.857 0.456683 143.677 0.177599 141.952 0.101485C140.214 0.0190285 139.662 0 135.254 0Z" fill="black"/>
<path d="M135.254 7.89685C130.649 7.89685 126.914 11.6328 126.914 16.2377C126.914 20.8426 130.649 24.5785 135.254 24.5785C139.859 24.5785 143.595 20.8426 143.595 16.2377C143.595 11.6328 139.859 7.89685 135.254 7.89685ZM135.254 21.6481C132.267 21.6481 129.844 19.2251 129.844 16.2377C129.844 13.2502 132.267 10.8272 135.254 10.8272C138.242 10.8272 140.665 13.2502 140.665 16.2377C140.665 19.2251 138.242 21.6481 135.254 21.6481Z" fill="black"/>
<path d="M145.872 7.56688C145.872 8.64516 144.997 9.51413 143.925 9.51413C142.847 9.51413 141.978 8.63882 141.978 7.56688C141.978 6.4886 142.853 5.61963 143.925 5.61963C144.997 5.61963 145.872 6.49494 145.872 7.56688Z" fill="black"/>
</g>
<g clip-path="url(#clip2_1210_2975)">
<path d="M71.7247 29.4304C83.9765 29.4304 90.6796 19.2775 90.6796 10.4756C90.6796 10.1901 90.6732 9.89836 90.6605 9.61293C91.9645 8.66993 93.0898 7.5019 93.9835 6.16371C92.7691 6.70402 91.4798 7.05689 90.1595 7.21027C91.5496 6.37697 92.5905 5.0679 93.0892 3.52573C91.7814 4.30079 90.3512 4.84753 88.8598 5.14251C87.855 4.07482 86.5264 3.36788 85.0795 3.131C83.6326 2.89411 82.1479 3.14047 80.8551 3.83198C79.5622 4.5235 78.5332 5.62165 77.927 6.95666C77.3209 8.29167 77.1714 9.78919 77.5017 11.2177C74.8536 11.0848 72.2629 10.3969 69.8977 9.19852C67.5325 8.00017 65.4455 6.31815 63.7721 4.26149C62.9215 5.72792 62.6612 7.46319 63.0442 9.11461C63.4271 10.766 64.4244 12.2097 65.8335 13.1522C64.7756 13.1186 63.7409 12.8338 62.8149 12.3213V12.4038C62.814 13.9427 63.346 15.4344 64.3205 16.6254C65.2951 17.8164 66.652 18.6332 68.1607 18.9369C67.1807 19.205 66.1522 19.2441 65.1548 19.0511C65.5805 20.3745 66.4088 21.5321 67.524 22.3621C68.6393 23.1922 69.9859 23.6534 71.3758 23.6813C69.0161 25.5349 66.1011 26.5403 63.1003 26.5356C62.5682 26.5348 62.0366 26.5022 61.5083 26.4379C64.5567 28.3936 68.1028 29.4323 71.7247 29.4304Z" fill="black"/>
</g>
<g clip-path="url(#clip3_1210_2975)">
<path d="M36.4752 16.2377C36.4752 7.26995 29.2054 0.00012207 20.2376 0.00012207C11.2698 0.00012207 4 7.26995 4 16.2377C4 24.3423 9.93783 31.06 17.7005 32.2781V20.9314H13.5777V16.2377H17.7005V12.6604C17.7005 8.59084 20.1247 6.34294 23.8337 6.34294C25.6097 6.34294 27.4684 6.66008 27.4684 6.66008V10.6561H25.421C23.404 10.6561 22.7748 11.9078 22.7748 13.1932V16.2377H27.2782L26.5582 20.9314H22.7748V32.2781C30.5374 31.06 36.4752 24.3423 36.4752 16.2377Z" fill="black"/>
</g>
</g>
<defs>
<filter id="filter0_d_1210_2975" x="0" y="0" width="213" height="40.4753" filterUnits="userSpaceOnUse" color-interpolation-filters="sRGB">
<feFlood flood-opacity="0" result="BackgroundImageFix"/>
<feColorMatrix in="SourceAlpha" type="matrix" values="0 0 0 0 0 0 0 0 0 0 0 0 0 0 0 0 0 0 127 0" result="hardAlpha"/>
<feOffset dy="4"/>
<feGaussianBlur stdDeviation="2"/>
<feComposite in2="hardAlpha" operator="out"/>
<feColorMatrix type="matrix" values="0 0 0 0 0 0 0 0 0 0 0 0 0 0 0 0 0 0 0.25 0"/>
<feBlend mode="normal" in2="BackgroundImageFix" result="effect1_dropShadow_1210_2975"/>
<feBlend mode="normal" in="SourceGraphic" in2="effect1_dropShadow_1210_2975" result="shape"/>
</filter>
<clipPath id="clip0_1210_2975">
<rect width="32.4752" height="32.4752" fill="white" transform="translate(176.525)"/>
</clipPath>
<clipPath id="clip1_1210_2975">
<rect width="32.4752" height="32.4752" fill="white" transform="translate(119.017)"/>
</clipPath>
<clipPath id="clip2_1210_2975">
<rect width="32.4752" height="32.4752" fill="white" transform="translate(61.5083)"/>
</clipPath>
<clipPath id="clip3_1210_2975">
<rect width="32.4752" height="32.4752" fill="white" transform="translate(4 0.00012207)"/>
</clipPath>
</defs>
</svg>
